<?xml version="1.0" encoding="UTF-8"?>
<svg id="Layer_1" xmlns="http://www.w3.org/2000/svg" xmlns:xlink="http://www.w3.org/1999/xlink" version="1.1" viewBox="0 0 1179.71 1019.62">
  <!-- Generator: Adobe Illustrator 29.8.3, SVG Export Plug-In . SVG Version: 2.1.1 Build 3)  -->
  <defs>
    <style>
      .st0 {
        fill: url(#linear-gradient1);
      }

      .st1 {
        fill: url(#radial-gradient);
      }

      .st2 {
        fill: url(#linear-gradient);
      }

      .st3 {
        fill: #0080ff;
      }
    </style>
    <linearGradient id="linear-gradient" x1="407.99" y1="252.18" x2="617.91" y2="529.87" gradientUnits="userSpaceOnUse">
      <stop offset=".56" stop-color="#32c2ff"/>
      <stop offset=".63" stop-color="#28b4ff"/>
      <stop offset=".97" stop-color="#0076ff"/>
    </linearGradient>
    <radialGradient id="radial-gradient" cx="325.33" cy="457.96" fx="325.33" fy="457.96" r="188.97" gradientUnits="userSpaceOnUse">
      <stop offset=".15" stop-color="#0027b9"/>
      <stop offset=".35" stop-color="#0043cf"/>
      <stop offset=".62" stop-color="#0064e9"/>
      <stop offset=".85" stop-color="#0078f9"/>
      <stop offset="1" stop-color="#0080ff"/>
    </radialGradient>
    <linearGradient id="linear-gradient1" x1="695.81" y1="553.32" x2="1006" y2="223.13" gradientUnits="userSpaceOnUse">
      <stop offset=".12" stop-color="#00ff86"/>
      <stop offset=".17" stop-color="#00f58e"/>
      <stop offset=".54" stop-color="#00b1ca"/>
      <stop offset=".81" stop-color="#0086f0"/>
      <stop offset=".94" stop-color="#0076ff"/>
    </linearGradient>
  </defs>
  <path class="st3" d="M459.66,785.75c-2.91-6.24-8.97-11.76-18.12-11.76-14.14,0-23.46,12.18-23.46,27.86s9.33,27.92,23.46,27.92c9.15,0,15.27-4.81,18.12-10.63v9.45h11.64v-53.4h-11.64v10.57ZM444.87,818.54c-8.61,0-14.61-6.53-14.61-16.69s6-16.63,14.61-16.63c9.39,0,15.5,6.71,15.5,16.63s-6.12,16.69-15.5,16.69ZM610.31,828.52l11.76.06v-53.29l-11.76-.06v53.29ZM396.5,798.4l-6.12-1.96c-4.4-1.43-6-3.45-6-6.12,0-3.98,4.22-5.76,8.38-5.76,4.4,0,10.45,1.25,14.49,3.5v-11.05c-4.34-2.08-9.09-3.03-14.97-3.03-10.81,0-19.6,5.29-19.6,16.1,0,8.14,5.76,12.65,13.07,14.91l6.77,2.08c4.52,1.37,6.48,3.45,6.48,6.18,0,4.28-4.1,5.88-9.03,5.88-4.63,0-11.82-1.43-16.57-3.92v11.46c5.11,2.08,10.81,3.09,17.29,3.09,10.51,0,19.96-4.87,19.96-16.04,0-8.49-6.59-12.83-14.14-15.33ZM616.37,753.02c-4.34,0-7.19,2.67-7.19,6.77s2.85,6.77,7.19,6.77,7.13-2.67,7.13-6.77-2.79-6.77-7.13-6.77ZM521.17,804.82c0,7.66-5.52,13.72-12.89,13.72-8.02,0-11.88-5.35-11.88-14.02v-29.41h-11.64v32.2c0,13.25,6.12,22.45,18.59,22.45,8.26,0,14.73-4.87,17.82-11.46v10.28h11.41v-53.46h-11.41v29.7ZM584.81,784.62c-2.91-5.94-8.97-10.63-18.12-10.63-14.2,0-23.52,12.18-23.52,27.86s9.33,27.92,23.52,27.92c9.15,0,15.21-5.52,18.12-11.76v10.57h11.41v-79.96h-11.41v36ZM570.01,818.54c-8.61,0-14.61-6.53-14.61-16.69s6-16.63,14.61-16.63c9.39,0,15.5,6.71,15.5,16.63s-6.12,16.69-15.5,16.69ZM845.51,785.69v-10.51h-11.47v53.4h11.47v-26.91c0-9.86,5.17-16.16,13.01-16.16,1.78,0,3.92.24,5.82.59v-11.76c-1.37-.24-2.61-.36-3.98-.36-7.6,0-12.59,4.99-14.85,11.7ZM911.89,785.15c-2.91-6.06-9.03-11.17-18.3-11.17-14.14,0-23.41,12.06-23.41,27.15,0,13.9,9.27,26.02,23.41,26.02,9.33,0,15.44-4.81,18.3-10.87v3.45c0,14.61-7.58,21.38-19.63,21.33-6.42-.03-13.63-2.19-19.63-5.93v12.06c4.44,2.81,13.28,5.16,21.53,5.16,19.04,0,29.32-12,29.32-33.15v-44.02h-11.58v9.98ZM896.98,816.64c-8.67,0-14.61-6.59-14.61-16.1s5.94-16.04,14.61-16.04c9.33,0,15.5,6.71,15.5,16.04s-6.18,16.1-15.5,16.1ZM958.76,813.31c-5.05-10.46-10.39-23.52-13.96-38.14h-12.24c5.35,19.37,12.77,37.07,20.08,50.49-4.46,8.38-9.56,16.81-15.45,25.48h13.54c15.15-24.12,25.96-47.35,33.8-75.98h-12.59c-3.5,13.78-7.84,26.32-13.19,38.14ZM798.17,773.99c-14.55,0-26.32,10.99-26.32,27.86,0,18.77,13.49,27.92,28.87,27.92,7.01,0,13.25-1.84,18.12-4.16v-9.98c-4.99,2.32-11.23,4.46-17.64,4.46-9.03,0-15.8-4.81-17.23-14.61h38.02c.18-1.66.3-3.03.3-4.57,0-15.27-9.27-26.91-24.12-26.91ZM783.97,797.33c1.37-8.55,6.71-13.66,14.14-13.66,7.96,0,12.95,5.58,13.54,13.66h-27.68ZM678.32,773.99c-14.55,0-26.32,10.99-26.32,27.86,0,18.77,13.49,27.92,28.87,27.92,7.01,0,13.25-1.84,18.12-4.16v-9.98c-4.99,2.32-11.23,4.46-17.64,4.46-9.03,0-15.8-4.81-17.23-14.61h38.02c.18-1.66.3-3.03.3-4.57,0-15.27-9.27-26.91-24.12-26.91ZM664.12,797.33c1.37-8.55,6.71-13.66,14.14-13.66,7.96,0,12.95,5.58,13.54,13.66h-27.68ZM743.12,773.99c-8.26,0-14.73,4.87-17.82,11.46v-10.28h-11.64v53.4h11.64v-29.7c0-7.66,5.52-13.66,12.89-13.66,8.02,0,11.88,5.35,11.88,14.02v29.35h11.64v-32.14c0-13.25-6.12-22.45-18.59-22.45ZM712.72,619.46l19.78,4.88c20.06,4.88,31.36,14.2,31.36,24.5,0,11.92-8.6,20.6-30.01,20.6-23.31,0-48.24-5.96-67.49-16.26v38.49c17.89,7.32,42.55,11.93,60.98,11.93,50.41,0,76.7-19.51,76.7-55.29,0-27.1-17.89-46.89-49.87-54.75l-24.93-6.23c-16.53-4.07-26.23-11.65-26.23-20.87,0-12.47,11.45-18.97,34.49-18.97,15.3,0,35.96,5.29,52.79,14.04v-35.36c-14.47-5.84-35.7-12.28-55.08-12.28-45.53,0-72.09,22.22-72.09,53.66,0,26.29,17.07,43.8,49.6,51.93ZM909.14,513.73c-55.64,0-89.84,39.17-89.84,94.72,0,62.63,42.37,95.27,96.11,95.27,20.63,0,43.4-4.1,64.3-13.87v-36.1c-24.7,10.59-44.51,15.77-66.77,15.77-24.86,0-46.53-13.54-52.25-44.51h127.16c9.97-59.79-17.51-111.28-78.71-111.28ZM860,592.88c4.31-28.92,21.67-44.95,49.14-44.95,24.6,0,42.27,16.43,42.27,44.95h-91.41Z"/>
  <g>
    <path class="st2" d="M540.31,454.83h-114.53c-75.05,0-117.32-37.86-148.75-80.21h0c16.82,22.93,32.49,51.08,48.13,80.27,9.24,17.26,18.48,34.88,27.92,51.99,36.83,66.74,76.89,102.86,133.7,102.86,45.2,0,86.9-31.35,129.13-101.73,10.17-16.95,20.37-34.83,30.66-53.12,23.49-41.75,47.42-85.59,72.48-125.17h0c-36.58,56.75-77.12,125.12-178.74,125.12Z"/>
    <path class="st1" d="M277.03,374.62c-43.39-59.17-74.88-55.14-87.18-51.12v131.39h135.31c-15.63-29.18-31.31-57.33-48.13-80.27Z"/>
    <path class="st0" d="M719.05,329.71c-25.06,39.59-48.99,83.42-72.48,125.17h343.09v-247.35c-116.04-43.7-188.42-7.68-270.61,122.18Z"/>
  </g>
</svg>